<svg width="864" height="136" viewBox="0 0 864 136" fill="none" xmlns="http://www.w3.org/2000/svg">
<path d="M11.2252 18.4799C13.28 18.4799 15.2507 17.6636 16.7037 16.2106C18.1566 14.7577 18.9729 12.787 18.9729 10.7322C18.9729 8.67737 18.1566 6.70672 16.7037 5.25374C15.2507 3.80077 13.28 2.9845 11.2252 2.9845C9.17041 2.9845 7.19976 3.80077 5.74679 5.25374C4.29381 6.70672 3.47754 8.67737 3.47754 10.7322C3.47754 12.787 4.29381 14.7577 5.74679 16.2106C7.19976 17.6636 9.17041 18.4799 11.2252 18.4799Z" stroke="#5C5F6A" stroke-width="1.44" stroke-linecap="round" stroke-linejoin="round"/>
<path d="M20.5225 21.0155L16.5782 17.0712" stroke="#5C5F6A" stroke-width="1.44" stroke-linecap="round" stroke-linejoin="round"/>
<path d="M59 3H62.3832L63.5885 14.9769C63.6386 15.3071 63.8064 15.608 64.061 15.8243C64.3156 16.0406 64.6398 16.1576 64.974 16.1538H73.7021C74.0042 16.1696 74.3032 16.0861 74.5534 15.9161C74.8035 15.7461 74.9912 15.4989 75.0875 15.2123L76.9302 9.67385C76.999 9.46564 77.0173 9.24406 76.9836 9.02739C76.9498 8.81072 76.865 8.60517 76.7362 8.42769C76.6021 8.23894 76.4227 8.08681 76.2146 7.98522C76.0065 7.88362 75.7761 7.83581 75.5447 7.84615H62.8681M67.5619 10.6154V13.3846M71.7182 10.6154V13.3846M73.4666 21C73.2829 21 73.1067 20.9271 72.9768 20.7972C72.8469 20.6674 72.7739 20.4913 72.7739 20.3077C72.7739 20.1241 72.8469 19.948 72.9768 19.8182C73.1067 19.6883 73.2829 19.6154 73.4666 19.6154C73.6503 19.6154 73.8265 19.6883 73.9564 19.8182C74.0863 19.948 74.1593 20.1241 74.1593 20.3077C74.1593 20.4913 74.0863 20.6674 73.9564 20.7972C73.8265 20.9271 73.6503 21 73.4666 21ZM64.4613 21C64.2776 21 64.1014 20.9271 63.9715 20.7972C63.8416 20.6674 63.7686 20.4913 63.7686 20.3077C63.7686 20.1241 63.8416 19.948 63.9715 19.8182C64.1014 19.6883 64.2776 19.6154 64.4613 19.6154C64.6451 19.6154 64.8213 19.6883 64.9512 19.8182C65.0811 19.948 65.1541 20.1241 65.1541 20.3077C65.1541 20.4913 65.0811 20.6674 64.9512 20.7972C64.8213 20.9271 64.6451 21 64.4613 21Z" stroke="#5C5F6A" stroke-width="1.42857" stroke-linecap="round" stroke-linejoin="round"/>
<path d="M124.039 10.5C126.199 10.5 127.95 8.82107 127.95 6.75C127.95 4.67894 126.199 3 124.039 3C121.879 3 120.128 4.67894 120.128 6.75C120.128 8.82107 121.879 10.5 124.039 10.5Z" stroke="#5C5F6A" stroke-width="1.42857" stroke-linecap="round" stroke-linejoin="round"/>
<path d="M117 21V20.1869C117.012 19.0436 117.327 17.9219 117.914 16.9267C118.501 15.9315 119.342 15.0953 120.357 14.496C121.372 13.8968 122.53 13.5541 123.721 13.5C123.827 13.4952 123.933 13.4927 124.039 13.4925C124.145 13.4927 124.251 13.4952 124.357 13.5C125.548 13.5541 126.706 13.8968 127.721 14.496C128.305 14.8406 128.831 15.2636 129.285 15.75" stroke="#5C5F6A" stroke-width="1.42857" stroke-linecap="round" stroke-linejoin="round"/>
<path d="M181.096 5.19349C180.993 5.0062 180.836 4.84902 180.642 4.73927C180.449 4.62952 180.227 4.57144 180 4.57144C179.773 4.57144 179.551 4.62952 179.358 4.73927C179.164 4.84902 179.007 5.0062 178.904 5.19349L172.132 17.7707C172.037 17.9447 171.992 18.1383 172.001 18.3331C172.01 18.5278 172.072 18.7172 172.182 18.8833C172.292 19.0494 172.445 19.1868 172.628 19.2821C172.811 19.3776 173.018 19.428 173.228 19.4286H186.772C186.982 19.428 187.189 19.3776 187.372 19.2821C187.555 19.1868 187.708 19.0494 187.818 18.8833C187.928 18.7172 187.99 18.5278 187.999 18.3331C188.008 18.1383 187.963 17.9447 187.868 17.7707L181.096 5.19349Z" stroke="#5C5F6A" stroke-width="1.43" stroke-linecap="round" stroke-linejoin="round"/>
<path d="M180 9.9592V13.3878" stroke="#5C5F6A" stroke-width="1.43" stroke-linecap="round" stroke-linejoin="round"/>
<path d="M180 16.6531C179.82 16.6531 179.674 16.5069 179.674 16.3265C179.674 16.1462 179.82 16 180 16" stroke="#5C5F6A" stroke-width="1.43" stroke-linecap="round" stroke-linejoin="round"/>
<path d="M180 16.6531C180.18 16.6531 180.327 16.5069 180.327 16.3265C180.327 16.1462 180.18 16 180 16" stroke="#5C5F6A" stroke-width="1.43" stroke-linecap="round" stroke-linejoin="round"/>
<path fill-rule="evenodd" clip-rule="evenodd" d="M229.636 5.63604C231.324 3.94821 233.613 3 236 3C238.387 3 240.676 3.94821 242.364 5.63604C244.052 7.32387 245 9.61305 245 12C245 14.3869 244.052 16.6761 242.364 18.364C240.676 20.0518 238.387 21 236 21C233.613 21 231.324 20.0518 229.636 18.364C227.948 16.6761 227 14.3869 227 12C227 9.61305 227.948 7.32387 229.636 5.63604ZM236 4.5602C234.027 4.5602 232.135 5.34403 230.739 6.73927C229.344 8.1345 228.56 10.0268 228.56 12C228.56 13.9732 229.344 15.8655 230.739 17.2607C232.135 18.656 234.027 19.4398 236 19.4398C237.973 19.4398 239.865 18.656 241.261 17.2607C242.656 15.8655 243.44 13.9732 243.44 12C243.44 10.0268 242.656 8.1345 241.261 6.73927C239.865 5.34403 237.973 4.5602 236 4.5602Z" fill="#5C5F6A"/>
<path fill-rule="evenodd" clip-rule="evenodd" d="M236.78 10.5876V16.5739H235.22V10.5876H236.78Z" fill="#5C5F6A"/>
<path fill-rule="evenodd" clip-rule="evenodd" d="M236.713 8.2062C236.756 8.10956 236.78 8.00259 236.78 7.89005C236.78 7.45921 236.431 7.10995 236 7.10995C235.709 7.10995 235.43 7.22545 235.225 7.43103C235.019 7.63662 234.904 7.91546 234.904 8.2062C234.904 8.49694 235.019 8.77578 235.225 8.98137C235.43 9.18695 235.709 9.30245 236 9.30245C236.431 9.30245 236.78 8.95319 236.78 8.52235C236.78 8.40981 236.756 8.30284 236.713 8.2062Z" fill="#5C5F6A"/>
<path fill-rule="evenodd" clip-rule="evenodd" d="M235.22 7.89005C235.22 7.45921 235.569 7.10995 236 7.10995C236.291 7.10995 236.57 7.22545 236.775 7.43103C236.981 7.63662 237.096 7.91546 237.096 8.2062C237.096 8.49694 236.981 8.77578 236.775 8.98137C236.57 9.18695 236.291 9.30245 236 9.30245C235.569 9.30245 235.22 8.95319 235.22 8.52235C235.22 8.40981 235.244 8.30284 235.287 8.2062C235.244 8.10956 235.22 8.00259 235.22 7.89005Z" fill="#5C5F6A"/>
<path d="M292 4.5L294.472 9.43691L300 10.2334L296 14.0741L296.944 19.5L292 16.9369L287.056 19.5L288 14.0741L284 10.2334L289.528 9.43691L292 4.5Z" fill="#5C5F6A"/>
<path d="M348 5.5L350.163 9.77865L355 10.469L351.5 13.7976L352.326 18.5L348 16.2787L343.674 18.5L344.5 13.7976L341 10.469L345.837 9.77865L348 5.5Z" stroke="#5C5F6A" stroke-width="1.4" stroke-linecap="round" stroke-linejoin="round"/>
<g clip-path="url(#clip0_876_976)">
<path d="M409.355 20.3571C409.175 20.3571 409.003 20.2894 408.876 20.1688C408.748 20.0483 408.677 19.8848 408.677 19.7143C408.677 19.5438 408.748 19.3803 408.876 19.2597C409.003 19.1391 409.175 19.0714 409.355 19.0714C409.535 19.0714 409.708 19.1391 409.835 19.2597C409.962 19.3803 410.034 19.5438 410.034 19.7143C410.034 19.8848 409.962 20.0483 409.835 20.1688C409.708 20.2894 409.535 20.3571 409.355 20.3571Z" stroke="#5C5F6A" stroke-width="1.42857" stroke-linecap="round" stroke-linejoin="round"/>
<path d="M400.534 20.3571C400.354 20.3571 400.181 20.2894 400.054 20.1688C399.927 20.0483 399.855 19.8848 399.855 19.7143C399.855 19.5438 399.927 19.3803 400.054 19.2597C400.181 19.1391 400.354 19.0714 400.534 19.0714C400.714 19.0714 400.886 19.1391 401.014 19.2597C401.141 19.3803 401.212 19.5438 401.212 19.7143C401.212 19.8848 401.141 20.0483 401.014 20.1688C400.886 20.2894 400.714 20.3571 400.534 20.3571Z" stroke="#5C5F6A" stroke-width="1.42857" stroke-linecap="round" stroke-linejoin="round"/>
<path d="M407.534 11.3571H403.463" stroke="#5C5F6A" stroke-width="1.42857" stroke-linecap="round" stroke-linejoin="round"/>
<path d="M405.498 9.42856V13.2857" stroke="#5C5F6A" stroke-width="1.42857" stroke-linecap="round" stroke-linejoin="round"/>
<path d="M395.179 3.64285H398.571L398.928 6.85714M398.928 6.85714L399.801 14.7064C399.836 15.0222 399.993 15.3144 400.243 15.5269C400.492 15.7394 400.815 15.857 401.15 15.8571H409.727C410.03 15.8571 410.324 15.7613 410.562 15.585C410.801 15.4087 410.97 15.1619 411.044 14.8839L412.74 8.45528C412.79 8.2657 412.794 8.06779 412.751 7.87659C412.709 7.6854 412.62 7.50594 412.493 7.35186C412.367 7.19779 412.204 7.07315 412.019 6.98743C411.833 6.9017 411.63 6.85714 411.424 6.85714H398.928Z" stroke="#5C5F6A" stroke-width="1.42857" stroke-linecap="round" stroke-linejoin="round"/>
</g>
<path d="M460.005 19L452.791 12.5513C448.87 8.68258 454.633 1.25337 460.005 7.26384C465.376 1.25337 471.114 8.70729 467.22 12.5513L460.005 19Z" stroke="#5C5F6A" stroke-width="1.42857" stroke-linecap="round" stroke-linejoin="round"/>
<path d="M519.727 8.27901L514.763 13.8604L512.281 11.9999M516.443 19.9176C516.158 20.0275 515.842 20.0275 515.557 19.9176C513.332 19.0638 511.419 17.5557 510.069 15.5921C508.72 13.6287 507.999 11.3024 508 8.92041V5.2301C508 4.90386 508.13 4.59097 508.36 4.36029C508.591 4.1296 508.904 4 509.231 4H522.769C523.096 4 523.409 4.1296 523.639 4.36029C523.87 4.59097 524 4.90386 524 5.2301V8.92041C524.001 11.3024 523.28 13.6287 521.931 15.5921C520.581 17.5557 518.668 19.0638 516.443 19.9176Z" stroke="#5C5F6A" stroke-width="1.43" stroke-linecap="round" stroke-linejoin="round"/>
<path d="M566.052 13.2695L563 18.5764L566.297 17.6893L567.181 21L569.829 16.3955M577.948 13.2695L581 18.5764L577.703 17.6893L576.819 21L574.171 16.3955M578.859 9.88992C578.859 13.6951 575.786 16.7799 571.996 16.7799C568.206 16.7799 565.134 13.6951 565.134 9.88992C565.134 6.08472 568.206 3 571.996 3C575.786 3 578.859 6.08472 578.859 9.88992ZM572.277 6.14906L573.222 8.05825C573.243 8.10653 573.277 8.14832 573.319 8.17934C573.362 8.21036 573.412 8.2295 573.464 8.23481L575.564 8.55486C575.624 8.5627 575.68 8.58754 575.727 8.62646C575.773 8.66539 575.808 8.7168 575.826 8.77467C575.844 8.83256 575.846 8.89452 575.831 8.95329C575.815 9.01208 575.784 9.06527 575.739 9.10664L574.19 10.5854C574.166 10.6297 574.154 10.6789 574.154 10.7289C574.154 10.7789 574.166 10.8281 574.19 10.8724L574.486 12.9692C574.499 13.0298 574.494 13.0928 574.472 13.1505C574.449 13.2082 574.411 13.2582 574.361 13.2945C574.311 13.3307 574.251 13.3515 574.19 13.3545C574.128 13.3575 574.067 13.3425 574.014 13.3113L572.145 12.318C572.097 12.2961 572.044 12.2848 571.991 12.2848C571.938 12.2848 571.886 12.2961 571.837 12.318L569.969 13.3113C569.915 13.3425 569.854 13.3575 569.793 13.3545C569.731 13.3515 569.672 13.3307 569.622 13.2945C569.572 13.2582 569.533 13.2082 569.511 13.1505C569.489 13.0928 569.483 13.0298 569.496 12.9692L569.848 10.8724C569.863 10.8237 569.866 10.772 569.856 10.722C569.847 10.6719 569.825 10.625 569.793 10.5854L568.243 9.0956C568.202 9.0538 568.173 9.00143 568.16 8.94426C568.146 8.88706 568.149 8.82727 568.167 8.77143C568.185 8.71559 568.218 8.66583 568.263 8.62763C568.307 8.58943 568.361 8.56425 568.419 8.55486L570.518 8.24585C570.571 8.24054 570.621 8.2214 570.663 8.19038C570.706 8.15935 570.739 8.11756 570.76 8.06928L571.705 6.1601C571.731 6.10605 571.771 6.06019 571.82 6.0277C571.87 5.99521 571.928 5.97737 571.988 5.97622C572.047 5.97508 572.106 5.99065 572.157 6.02121C572.208 6.05175 572.25 6.09604 572.277 6.14906Z" stroke="#5C5F6A" stroke-width="1.43" stroke-linecap="round" stroke-linejoin="round"/>
<path d="M631.085 15.844V6.39276C631.085 6.02338 630.935 5.66912 630.667 5.40793C630.399 5.14674 630.035 5 629.656 5H620.429C620.05 5 619.687 5.14674 619.419 5.40793C619.151 5.66912 619 6.02338 619 6.39276V15.6212C619 15.9906 619.151 16.3448 619.419 16.606C619.687 16.8672 620.05 17.0139 620.429 17.0139H621.501M637 11.5919H631.087M635.077 16.7535H635.57C635.949 16.7535 636.312 16.6067 636.58 16.3456C636.848 16.0844 636.999 15.7301 636.999 15.3607V11.1825L635.008 7.20891C634.89 6.97493 634.708 6.77781 634.481 6.63993C634.254 6.50206 633.992 6.42897 633.725 6.42897H631.342M630.254 17.0139H626.057M621.572 17.0557C621.572 17.5714 621.782 18.0659 622.157 18.4305C622.531 18.7952 623.038 19 623.567 19C624.096 19 624.604 18.7952 624.978 18.4305C625.352 18.0659 625.562 17.5714 625.562 17.0557C625.562 16.5401 625.352 16.0455 624.978 15.6809C624.604 15.3163 624.096 15.1114 623.567 15.1114C623.038 15.1114 622.531 15.3163 622.157 15.6809C621.782 16.0455 621.572 16.5401 621.572 17.0557ZM630.628 17.0557C630.628 17.5714 630.838 18.0659 631.212 18.4305C631.586 18.7952 632.094 19 632.623 19C633.152 19 633.659 18.7952 634.034 18.4305C634.408 18.0659 634.618 17.5714 634.618 17.0557C634.618 16.5401 634.408 16.0455 634.034 15.6809C633.659 15.3163 633.152 15.1114 632.623 15.1114C632.094 15.1114 631.586 15.3163 631.212 15.6809C630.838 16.0455 630.628 16.5401 630.628 17.0557Z" stroke="#5C5F6A" stroke-width="1.43" stroke-linecap="round" stroke-linejoin="round"/>
<path d="M679.808 19.7857H677.412C677.094 19.7857 676.79 19.6595 676.565 19.4349C676.34 19.2103 676.214 18.9056 676.214 18.5879V9.00551M676.214 9.00551H691.786M676.214 9.00551L678.861 4.8132C678.964 4.63561 679.11 4.48728 679.286 4.38242C679.462 4.27756 679.663 4.21967 679.868 4.21429H688.132C688.337 4.21967 688.537 4.27756 688.714 4.38242C688.89 4.48728 689.036 4.63561 689.139 4.8132L691.786 9.00551M691.786 9.00551V18.5879C691.786 18.9056 691.659 19.2103 691.435 19.4349C691.21 19.6595 690.906 19.7857 690.588 19.7857H688.192M681.005 15.5934L684 12.5989M684 12.5989L686.994 15.5934M684 12.5989L684 19.7857M684 4.21429V9.0055" stroke="#5C5F6A" stroke-width="1.42857" stroke-linecap="round" stroke-linejoin="round"/>
<path d="M733.231 9.66667H746.769M733.231 9.66667V17.8333C733.231 18.1427 733.36 18.4395 733.591 18.6583C733.822 18.877 734.135 19 734.462 19H745.538C745.865 19 746.178 18.877 746.409 18.6583C746.64 18.4395 746.769 18.1427 746.769 17.8333V9.66667M733.231 9.66667C732.551 9.66667 732 9.14433 732 8.5V6.16667C732 5.52234 732.551 5 733.231 5H746.769C747.449 5 748 5.52234 748 6.16667V8.5C748 9.14433 747.449 9.66667 746.769 9.66667M738.154 13.1667H741.846" stroke="#5C5F6A" stroke-width="1.42857" stroke-linecap="round" stroke-linejoin="round"/>
<path d="M798.769 10.6666C800.681 10.6666 802.231 9.17424 802.231 7.33331C802.231 5.49237 800.681 4 798.769 4M802.231 20H805V19.2771C804.989 18.2608 804.711 17.2638 804.191 16.3792C803.671 15.4946 802.927 14.7513 802.028 14.2186C801.447 13.8743 800.814 13.6253 800.154 13.4793M793.231 10.6666C795.143 10.6666 796.692 9.17424 796.692 7.33331C796.692 5.49237 795.143 4 793.231 4C791.319 4 789.769 5.49237 789.769 7.33331C789.769 9.17424 791.319 10.6666 793.231 10.6666ZM787 19.9999H799.462V19.2771C799.451 18.2608 799.172 17.2638 798.653 16.3792C798.133 15.4946 797.389 14.7512 796.49 14.2186C795.591 13.6859 794.567 13.3814 793.513 13.3333C793.419 13.329 793.325 13.3268 793.231 13.3266C793.137 13.3268 793.043 13.329 792.949 13.3333C791.895 13.3814 790.87 13.6859 789.971 14.2186C789.073 14.7512 788.329 15.4946 787.809 16.3792C787.289 17.2638 787.011 18.2608 787 19.2771V19.9999Z" stroke="#5C5F6A" stroke-width="1.42857" stroke-linecap="round" stroke-linejoin="round"/>
<path d="M849.627 5.78846L850.204 4.33692C850.301 4.09116 850.472 3.87977 850.694 3.73043C850.917 3.5811 851.18 3.50078 851.45 3.5H852.55C852.82 3.50078 853.083 3.5811 853.306 3.73043C853.528 3.87977 853.699 4.09116 853.796 4.33692L854.373 5.78846L856.33 6.88692L857.912 6.65154C858.175 6.61666 858.443 6.65895 858.682 6.77305C858.92 6.88715 859.119 7.06788 859.252 7.29231L859.788 8.20769C859.926 8.43569 859.989 8.69897 859.97 8.96278C859.951 9.22659 859.85 9.47855 859.681 9.68539L858.702 10.9015V13.0985L859.708 14.3146C859.877 14.5215 859.977 14.7734 859.997 15.0372C860.016 15.301 859.952 15.5643 859.815 15.7923L859.279 16.7077C859.146 16.9321 858.947 17.1128 858.709 17.227C858.47 17.341 858.202 17.3834 857.938 17.3485L856.357 17.1131L854.399 18.2115L853.823 19.6631C853.726 19.9088 853.555 20.1202 853.332 20.2696C853.11 20.4189 852.846 20.4992 852.576 20.5H851.45C851.18 20.4992 850.917 20.4189 850.694 20.2696C850.472 20.1202 850.301 19.9088 850.204 19.6631L849.627 18.2115L847.67 17.1131L846.088 17.3485C845.825 17.3834 845.557 17.341 845.318 17.227C845.08 17.1128 844.881 16.9321 844.748 16.7077L844.212 15.7923C844.074 15.5643 844.011 15.301 844.03 15.0372C844.049 14.7734 844.15 14.5215 844.319 14.3146L845.298 13.0985V10.9015L844.292 9.68539C844.123 9.47855 844.022 9.22659 844.003 8.96278C843.984 8.69897 844.048 8.43569 844.185 8.20769L844.721 7.29231C844.854 7.06788 845.053 6.88715 845.291 6.77305C845.53 6.65895 845.798 6.61666 846.062 6.65154L847.643 6.88692L849.627 5.78846ZM849.319 12C849.319 12.5173 849.476 13.0229 849.771 13.453C850.065 13.8831 850.484 14.2183 850.974 14.4163C851.464 14.6142 852.003 14.666 852.523 14.5651C853.043 14.4642 853.521 14.2151 853.896 13.8494C854.271 13.4836 854.526 13.0176 854.629 12.5102C854.733 12.0029 854.68 11.477 854.477 10.9991C854.274 10.5212 853.93 10.1128 853.489 9.82539C853.049 9.53801 852.53 9.38462 852 9.38462C851.289 9.38462 850.607 9.66016 850.104 10.1506C849.601 10.6411 849.319 11.3064 849.319 12Z" stroke="#5C5F6A" stroke-width="1.42857" stroke-linecap="round" stroke-linejoin="round"/>
<path d="M18.9231 67.4231H14.3077C13.9891 67.4231 13.7308 67.6814 13.7308 68V74.9231C13.7308 75.2417 13.9891 75.5 14.3077 75.5H18.9231C19.2417 75.5 19.5 75.2417 19.5 74.9231V68C19.5 67.6814 19.2417 67.4231 18.9231 67.4231Z" stroke="#5C5F6A" stroke-width="1.43" stroke-linecap="round" stroke-linejoin="round"/>
<path d="M18.9231 60.5H14.3077C13.9891 60.5 13.7308 60.7583 13.7308 61.0769V63.3962C13.7308 63.7148 13.9891 63.9731 14.3077 63.9731H18.9231C19.2417 63.9731 19.5 63.7148 19.5 63.3962V61.0769C19.5 60.7583 19.2417 60.5 18.9231 60.5Z" stroke="#5C5F6A" stroke-width="1.43" stroke-linecap="round" stroke-linejoin="round"/>
<path d="M9.69231 60.5H5.07692C4.7583 60.5 4.5 60.7583 4.5 61.0769V68C4.5 68.3186 4.7583 68.5769 5.07692 68.5769H9.69231C10.0109 68.5769 10.2692 68.3186 10.2692 68V61.0769C10.2692 60.7583 10.0109 60.5 9.69231 60.5Z" stroke="#5C5F6A" stroke-width="1.43" stroke-linecap="round" stroke-linejoin="round"/>
<path d="M9.69231 72.0269H5.07692C4.7583 72.0269 4.5 72.2852 4.5 72.6038V74.9231C4.5 75.2417 4.7583 75.5 5.07692 75.5H9.69231C10.0109 75.5 10.2692 75.2417 10.2692 74.9231V72.6038C10.2692 72.2852 10.0109 72.0269 9.69231 72.0269Z" stroke="#5C5F6A" stroke-width="1.43" stroke-linecap="round" stroke-linejoin="round"/>
<path fill-rule="evenodd" clip-rule="evenodd" d="M65.116 63.083C65.8809 62.3181 66.9183 61.8884 68 61.8884C69.0817 61.8884 70.1191 62.3181 70.884 63.083C71.6488 63.8479 72.0785 64.8853 72.0785 65.9669C72.0785 67.0486 71.6488 68.086 70.884 68.8509C70.1191 69.6158 69.0817 70.0455 68 70.0455C66.9183 70.0455 65.8809 69.6158 65.116 68.8509C64.3512 68.086 63.9215 67.0486 63.9215 65.9669C63.9215 64.8853 64.3512 63.8479 65.116 63.083ZM68 63.2686C67.2844 63.2686 66.598 63.5529 66.092 64.059C65.586 64.565 65.3017 65.2513 65.3017 65.9669C65.3017 66.6826 65.586 67.3689 66.092 67.8749C66.598 68.381 67.2844 68.6653 68 68.6653C68.7156 68.6653 69.402 68.381 69.908 67.8749C70.414 67.3689 70.6983 66.6826 70.6983 65.9669C70.6983 65.2513 70.414 64.565 69.908 64.059C69.402 63.5529 68.7156 63.2686 68 63.2686Z" fill="#5C5F6A"/>
<path fill-rule="evenodd" clip-rule="evenodd" d="M68 72.0804C66.9559 72.0804 65.9293 72.349 65.019 72.8603C64.1086 73.3717 63.3452 74.1087 62.8019 75.0003C62.6036 75.3258 62.179 75.4289 61.8535 75.2307C61.528 75.0324 61.4249 74.6077 61.6232 74.2823C62.2896 73.1884 63.2262 72.2843 64.343 71.657C65.4598 71.0297 66.7191 70.7002 68 70.7002C69.2809 70.7002 70.5402 71.0297 71.657 71.657C72.7738 72.2843 73.7104 73.1884 74.3768 74.2823C74.5751 74.6077 74.472 75.0324 74.1465 75.2307C73.821 75.4289 73.3964 75.3258 73.1981 75.0003C72.6548 74.1087 71.8914 73.3717 70.981 72.8603C70.0707 72.349 69.0441 72.0804 68 72.0804Z" fill="#5C5F6A"/>
<path fill-rule="evenodd" clip-rule="evenodd" d="M61.2825 61.2825C63.0641 59.5009 65.4804 58.5 68 58.5C70.5196 58.5 72.9359 59.5009 74.7175 61.2825C76.4991 63.0641 77.5 65.4804 77.5 68C77.5 70.5196 76.4991 72.9359 74.7175 74.7175C72.9359 76.4991 70.5196 77.5 68 77.5C65.4804 77.5 63.0641 76.4991 61.2825 74.7175C59.5009 72.9359 58.5 70.5196 58.5 68C58.5 65.4804 59.5009 63.0641 61.2825 61.2825ZM68 59.8802C65.8465 59.8802 63.7812 60.7357 62.2584 62.2584C60.7357 63.7812 59.8802 65.8465 59.8802 68C59.8802 70.1535 60.7357 72.2188 62.2584 73.7416C63.7812 75.2643 65.8465 76.1198 68 76.1198C70.1535 76.1198 72.2188 75.2643 73.7416 73.7416C75.2643 72.2188 76.1198 70.1535 76.1198 68C76.1198 65.8465 75.2643 63.7812 73.7416 62.2584C72.2188 60.7357 70.1535 59.8802 68 59.8802Z" fill="#5C5F6A"/>
<path fill-rule="evenodd" clip-rule="evenodd" d="M129.924 59.6378C130.202 59.3588 130.655 59.3588 130.934 59.6378L133.791 62.4949C134.07 62.7739 134.07 63.2261 133.791 63.5051C133.512 63.784 133.06 63.784 132.781 63.5051L130.429 61.153L122.534 69.0479C122.255 69.3269 121.802 69.3269 121.524 69.0479C121.245 68.769 121.245 68.3167 121.524 68.0378L129.924 59.6378Z" fill="#5C5F6A"/>
<path fill-rule="evenodd" clip-rule="evenodd" d="M126.709 62.8521C126.988 62.5731 127.44 62.5731 127.719 62.8521L130.219 65.3521C130.498 65.631 130.498 66.0833 130.219 66.3622C129.94 66.6412 129.488 66.6412 129.209 66.3622L126.709 63.8622C126.43 63.5833 126.43 63.131 126.709 62.8521Z" fill="#5C5F6A"/>
<path fill-rule="evenodd" clip-rule="evenodd" d="M114 71.5714C114 68.81 116.239 66.5714 119 66.5714C121.761 66.5714 124 68.81 124 71.5714C124 74.3329 121.761 76.5714 119 76.5714C116.239 76.5714 114 74.3329 114 71.5714ZM119 68C117.028 68 115.429 69.599 115.429 71.5714C115.429 73.5439 117.028 75.1428 119 75.1428C120.972 75.1428 122.571 73.5439 122.571 71.5714C122.571 69.599 120.972 68 119 68Z" fill="#5C5F6A"/>
<path d="M176.969 69.359L183.04 72.941M183.031 63.059L176.969 66.641M188 61.7C188 63.1912 186.806 64.4 185.333 64.4C183.861 64.4 182.667 63.1912 182.667 61.7C182.667 60.2088 183.861 59 185.333 59C186.806 59 188 60.2088 188 61.7ZM177.333 68C177.333 69.4912 176.139 70.7 174.667 70.7C173.194 70.7 172 69.4912 172 68C172 66.5088 173.194 65.3 174.667 65.3C176.139 65.3 177.333 66.5088 177.333 68ZM188 74.3C188 75.7912 186.806 77 185.333 77C183.861 77 182.667 75.7912 182.667 74.3C182.667 72.8088 183.861 71.6 185.333 71.6C186.806 71.6 188 72.8088 188 74.3Z" stroke="#5C5F6A" stroke-width="1.43" stroke-linecap="round" stroke-linejoin="round"/>
<path d="M238.857 72V74.2857C238.857 74.5888 238.737 74.8796 238.522 75.0938C238.308 75.3081 238.017 75.4286 237.714 75.4286H229.714C229.411 75.4286 229.12 75.3081 228.906 75.0938C228.692 74.8796 228.571 74.5888 228.571 74.2857V61.7143C228.571 61.4112 228.692 61.1205 228.906 60.9062C229.12 60.6918 229.411 60.5714 229.714 60.5714H237.714C238.017 60.5714 238.308 60.6918 238.522 60.9062C238.737 61.1205 238.857 61.4112 238.857 61.7143V64M235.429 68H243.429M243.429 68L241.143 65.7143M243.429 68L241.143 70.2857" stroke="#5C5F6A" stroke-width="1.43" stroke-linecap="round" stroke-linejoin="round"/>
<path fill-rule="evenodd" clip-rule="evenodd" d="M285.71 68.5042C285.43 68.2257 285.43 67.7743 285.71 67.4958L291.246 62L292.262 63.0084L287.234 68L292.262 72.9916L291.246 74L285.71 68.5042Z" fill="#5C5F6A"/>
<path fill-rule="evenodd" clip-rule="evenodd" d="M286.003 67.2869H298.5V68.7131H286.003V67.2869Z" fill="#5C5F6A"/>
<path fill-rule="evenodd" clip-rule="evenodd" d="M354.29 67.4958C354.57 67.7743 354.57 68.2257 354.29 68.5042L348.754 74L347.738 72.9916L352.766 68L347.738 63.0084L348.754 62L354.29 67.4958Z" fill="#5C5F6A"/>
<path fill-rule="evenodd" clip-rule="evenodd" d="M353.997 68.7131H341.5V67.2869H353.997V68.7131Z" fill="#5C5F6A"/>
<path fill-rule="evenodd" clip-rule="evenodd" d="M401.188 68.5327C400.939 68.2557 400.937 67.8042 401.184 67.5243L406.051 62L406.954 63.0033L402.533 68.0207L407 72.9863L406.107 74L401.188 68.5327Z" fill="#5C5F6A"/>
<path fill-rule="evenodd" clip-rule="evenodd" d="M459.467 61.713C459.744 61.4311 460.196 61.4287 460.476 61.7077L466 67.2129L464.997 68.2336L459.979 63.2335L455.014 68.2857L454 67.2755L459.467 61.713Z" fill="#5C5F6A"/>
<path fill-rule="evenodd" clip-rule="evenodd" d="M460.686 61.999L460.75 74.4926L459.324 74.5L459.26 62.0064L460.686 61.999Z" fill="#5C5F6A"/>
<path fill-rule="evenodd" clip-rule="evenodd" d="M518.812 67.4673C519.061 67.7443 519.063 68.1958 518.816 68.4757L513.949 74L513.046 72.9967L517.467 67.9793L513 63.0137L513.893 62L518.812 67.4673Z" fill="#5C5F6A"/>
<path fill-rule="evenodd" clip-rule="evenodd" d="M572.533 70.8117C572.256 71.061 571.804 71.063 571.524 70.8163L566 65.9486L567.003 65.046L572.021 69.4672L576.986 65L578 65.8932L572.533 70.8117Z" fill="#5C5F6A"/>
<path d="M637 62L625.312 74L620 68.5455" stroke="#5C5F6A" stroke-width="1.4" stroke-linecap="round" stroke-linejoin="round"/>
<path d="M677 68H689" stroke="#5C5F6A" stroke-width="1.7" stroke-linecap="round" stroke-linejoin="round"/>
<path d="M745 63L735 73" stroke="#5C5F6A" stroke-width="1.7" stroke-linecap="round" stroke-linejoin="round"/>
<path d="M735 63L745 73" stroke="#5C5F6A" stroke-width="1.7" stroke-linecap="round" stroke-linejoin="round"/>
<path d="M796 62V74" stroke="#5C5F6A" stroke-width="1.7" stroke-linecap="round" stroke-linejoin="round"/>
<path d="M790 68H802" stroke="#5C5F6A" stroke-width="1.7" stroke-linecap="round" stroke-linejoin="round"/>
<path d="M846.143 68.5714C845.827 68.5714 845.571 68.3156 845.571 68C845.571 67.6844 845.827 67.4286 846.143 67.4286" stroke="#5C5F6A" stroke-width="1.8" stroke-linecap="round" stroke-linejoin="round"/>
<path d="M846.143 68.5714C846.458 68.5714 846.714 68.3156 846.714 68C846.714 67.6844 846.458 67.4286 846.143 67.4286" stroke="#5C5F6A" stroke-width="1.8" stroke-linecap="round" stroke-linejoin="round"/>
<path d="M852 68.5714C851.684 68.5714 851.429 68.3156 851.429 68C851.429 67.6844 851.684 67.4286 852 67.4286" stroke="#5C5F6A" stroke-width="1.8" stroke-linecap="round" stroke-linejoin="round"/>
<path d="M852 68.5714C852.316 68.5714 852.571 68.3156 852.571 68C852.571 67.6844 852.316 67.4286 852 67.4286" stroke="#5C5F6A" stroke-width="1.8" stroke-linecap="round" stroke-linejoin="round"/>
<path d="M857.857 68.5714C857.541 68.5714 857.286 68.3156 857.286 68C857.286 67.6844 857.541 67.4286 857.857 67.4286" stroke="#5C5F6A" stroke-width="1.8" stroke-linecap="round" stroke-linejoin="round"/>
<path d="M857.857 68.5714C858.173 68.5714 858.429 68.3156 858.429 68C858.429 67.6844 858.173 67.4286 857.857 67.4286" stroke="#5C5F6A" stroke-width="1.8" stroke-linecap="round" stroke-linejoin="round"/>
<path d="M6 120.309L8.37549 118M8.37549 118L10.7525 120.307M8.37549 118L8.37935 130M18 127.692L15.6238 130M15.6238 130L13.2475 127.692M15.6238 130V118" stroke="#5C5F6A" stroke-width="1.14286" stroke-linecap="round" stroke-linejoin="round"/>
<path d="M70.1428 119V117.571C70.1428 117.193 69.9923 116.829 69.7244 116.561C69.4565 116.293 69.0931 116.143 68.7142 116.143H67.2856" stroke="#5C5F6A" stroke-width="1.42857" stroke-linecap="round" stroke-linejoin="round"/>
<path d="M63.7142 129H60.1428C59.7639 129 59.4006 128.849 59.1327 128.582C58.8647 128.314 58.7142 127.95 58.7142 127.571V117.571C58.7142 117.193 58.8647 116.829 59.1327 116.561C59.4006 116.293 59.7639 116.143 60.1428 116.143H61.5714" stroke="#5C5F6A" stroke-width="1.42857" stroke-linecap="round" stroke-linejoin="round"/>
<path d="M75.8571 121.857H68.7142C67.9252 121.857 67.2856 122.497 67.2856 123.286V131.857C67.2856 132.646 67.9252 133.286 68.7142 133.286H75.8571C76.6461 133.286 77.2856 132.646 77.2856 131.857V123.286C77.2856 122.497 76.6461 121.857 75.8571 121.857Z" stroke="#5C5F6A" stroke-width="1.42857" stroke-linecap="round" stroke-linejoin="round"/>
<path d="M67.6428 114.714H61.2142L61.7999 117.029C61.8356 117.183 61.923 117.322 62.0476 117.42C62.1722 117.519 62.3267 117.572 62.4857 117.571H66.3714C66.5303 117.572 66.6848 117.519 66.8094 117.42C66.9341 117.322 67.0214 117.183 67.0571 117.029L67.6428 114.714Z" stroke="#5C5F6A" stroke-width="1.42857" stroke-linecap="round" stroke-linejoin="round"/>
<path d="M70.1428 126.143H74.4285" stroke="#5C5F6A" stroke-width="1.42857" stroke-linecap="round" stroke-linejoin="round"/>
<path d="M70.1428 129H74.4285" stroke="#5C5F6A" stroke-width="1.42857" stroke-linecap="round" stroke-linejoin="round"/>
<path d="M114.714 125.429L124 116.143L133.286 125.429" stroke="#5C5F6A" stroke-width="1.42857" stroke-linecap="round" stroke-linejoin="round"/>
<path d="M117.571 122.571V131.857H130.429V122.571" stroke="#5C5F6A" stroke-width="1.42857" stroke-linecap="round" stroke-linejoin="round"/>
<path d="M172.5 119H187.5" stroke="#5C5F6A" stroke-width="1.75" stroke-linecap="round" stroke-linejoin="round"/>
<path d="M172.5 124H187.5" stroke="#5C5F6A" stroke-width="1.75" stroke-linecap="round" stroke-linejoin="round"/>
<path d="M172.5 129H187.5" stroke="#5C5F6A" stroke-width="1.75" stroke-linecap="round" stroke-linejoin="round"/>
<defs>
<clipPath id="clip0_876_976">
<rect width="19" height="18" fill="white" transform="translate(394.5 3)"/>
</clipPath>
</defs>
</svg>
